# xmcd
#
# Track frame offsets: 
#        150
#        18947
#        31649
#        42441
#        57924
#        73401
#        90102
#        113276
#        130556
#        148029
#        154798
#        171670
#
# Disc length: 2457 seconds
#
# Revision: 0
# Processed by: cddbd v1.5.2PL0 Copyright (c) Steve Scherf et al.
# Submitted via: ExactAudioCopyFreeDBPlugin 1.0
#
DISCID=9409970c
DTITLE=Blues Section - Some Of Love (LRCD 6 2012 remaster)
DYEAR=1968
DGENRE=Suomirock
TTITLE0=Hey Hey Hey
TTITLE1=Kauan Kuljen
TTITLE2=Call Me on the Telephone
TTITLE3=Anna Suukko Vaan
TTITLE4=Only Dreaming
TTITLE5=Faye
TTITLE6=Avaruuslaulu
TTITLE7=Cherry Cup - Cake Twist
TTITLE8=Sun of Love
TTITLE9=The Straight And Narrow
TTITLE10=Hei Vaan
TTITLE11=Semi-Circle Solitude
EXTD=
EXTT0=
EXTT1=
EXTT2=
EXTT3=
EXTT4=
EXTT5=
EXTT6=
EXTT7=
EXTT8=
EXTT9=
EXTT10=
EXTT11=
PLAYORDER=
